<svg xmlns="http://www.w3.org/2000/svg" viewBox="0 0 1536 430" role="img" aria-labelledby="title desc">
  <title id="title">Lifewood logo</title>
  <desc id="desc">Gold geometric emblem and dark green Lifewood wordmark.</desc>
  <rect width="1536" height="430" fill="none"/>
  <g fill="#F4B04A">
    <path d="M138 60 L200 122 L200 248 L138 340 L76 248 L76 122 Z"/>
  </g>
  <g fill="#005C3B">
    <rect x="250" y="79" width="44" height="261" rx="0"/>
    <circle cx="348" cy="103" r="26"/>
    <rect x="327" y="147" width="42" height="193"/>
    <path d="M391 147 H424 V134 C424 98 453 79 492 79 H508 V117 H491 C474 117 466 126 466 141 V147 H508 V184 H466 V340 H424 V184 H391 Z"/>
    <path d="M631 286 L678 306 C659 332 631 343 596 343 C545 343 508 307 508 244 C508 183 544 145 595 145 C646 145 679 180 679 239 C679 246 678 253 677 258 H553 C559 289 578 306 604 306 C617 306 627 302 631 286 Z M554 210 H632 C626 192 613 181 595 181 C576 181 561 192 554 210 Z"/>
    <path d="M674 147 H720 L752 291 L796 147 H828 L872 291 L904 147 H936 L890 340 H843 L811 205 L779 340 H732 Z"/>
    <path d="M1022 343 C967 343 931 304 931 244 C931 184 967 145 1022 145 C1078 145 1114 184 1114 244 C1114 304 1078 343 1022 343 Z M1022 304 C1047 304 1069 283 1069 244 C1069 206 1047 184 1022 184 C997 184 976 206 976 244 C976 283 997 304 1022 304 Z"/>
    <path d="M1204 343 C1149 343 1113 304 1113 244 C1113 184 1149 145 1204 145 C1260 145 1292 184 1292 244 C1292 304 1260 343 1204 343 Z M1204 304 C1229 304 1247 283 1247 244 C1247 206 1229 184 1204 184 C1179 184 1158 206 1158 244 C1158 283 1179 304 1204 304 Z"/>
    <path d="M1309 145 H1375 C1426 145 1460 184 1460 242 C1460 302 1426 340 1375 340 H1309 Z M1352 181 V303 H1370 C1399 303 1415 281 1415 242 C1415 203 1399 181 1370 181 Z"/>
  </g>
</svg>